# xmcd CD database file
#
# Track frame offsets:
#	150
#	4864
#	16907
#	51723
#	59910
#	77548
#	105911
#	132805
#	158762
#	174034
#	205122
#	247349
#	276952
#	303316
#	318719
#
# Disc length: 4503 seconds
#
# Revision: 0
# Processed by: cddbd v1.5.2PL0 Copyright (c) Steve Scherf et al.
# Submitted via: CDex 1.51
#
DISCID=cb11950f
DTITLE=Lisa Gerrard - The Best Of Lisa Gerrard
DYEAR=2007
DGENRE=New Age
TTITLE0=The Wheat
TTITLE1=Elysium
TTITLE2=Sacrifice
TTITLE3=Ariadne
TTITLE4=Sanvean (Live At The Mayfair Theatre)
TTITLE5=The Host Of Seraphim
TTITLE6=Cantara
TTITLE7=Swans
TTITLE8=The Promised Womb
TTITLE9=Yulunga (Spirit Dance)
TTITLE10=Indus
TTITLE11=Persephone (The Gathering Of Flowers)
TTITLE12=Go Forward
TTITLE13=See The Sun
TTITLE14=Now We Are Free
EXTD=YEAR: 2007
EXTT0=
EXTT1=
EXTT2=
EXTT3=
EXTT4=
EXTT5=
EXTT6=
EXTT7=
EXTT8=
EXTT9=
EXTT10=
EXTT11=
EXTT12=
EXTT13=
EXTT14=
PLAYORDER=
